Coordinates
version=1
nRows=16
nColumns=50
inDegrees=no

Units are S.I. units (second, meters, Newtons, ...)
If the header above contains a line with 'inDegrees', this indicates whether rotational values are in degrees (yes) or radians (no).

endheader
time	pelvis_tilt	pelvis_list	pelvis_rotation	pelvis_tx	pelvis_ty	pelvis_tz	hip_flexion_r	hip_adduction_r	hip_rotation_r	knee_angle_r	ankle_angle_r	subtalar_angle_r	mtp_angle_r	hip_flexion_l	hip_adduction_l	hip_rotation_l	knee_angle_l	ankle_angle_l	subtalar_angle_l	mtp_angle_l	lumbar_bending	lumbar_extension	lumbar_twist	thorax_bending	thorax_extension	thorax_twist	head_bending	head_extension	head_twist	scapula_abduction_r	scapula_elevation_r	scapula_upward_rot_r	shoulder_r_x	shoulder_r_y	shoulder_r_z	elbow_flexion_r	pro_sup_r	wrist_flexion_r	wrist_deviation_r	scapula_abduction_l	scapula_elevation_l	scapula_upward_rot_l	shoulder_l_x	shoulder_l_y	shoulder_l_z	elbow_flexion_l	pro_sup_l	wrist_flexion_l	wrist_deviation_l
0	0.0232004	-0.165245	-1.5167	0.00776848	0.98854	0.0195017	-0.111726	-0.0588296	-0.213199	0.279744	0.113015	0.116017	-0.0925042	-0.181034	-0.0192362	-0.0321918	0.246716	0.097674	0.0344537	-0.0778002	0.0366074	-0.524036	-0.00667628	-0.0594906	0.180096	-0.0233621	0.0580505	-0.140599	-0.0437506	-1.18404	-0.16636	0.0445876	-0.457284	0.0801856	-0.378333	0.538597	0.129578	0.239865	-0.0884088	-1.1465	-0.0672812	0.0519445	0.527689	-0.0627939	-0.310694	0.577872	0.154116	0.26274	-0.0757339
0.00828706	0.0292535	-0.166296	-1.52162	0.0022244	0.987736	0.0226074	-0.11812	-0.0611447	-0.211745	0.278327	0.115388	0.11767	-0.0924202	-0.168922	-0.0187196	-0.0325748	0.265983	0.096046	0.0300933	-0.077545	0.0325373	-0.527358	-0.00739304	-0.0607352	0.179543	-0.0188368	0.0574369	-0.143825	-0.0426259	-1.18301	-0.166497	0.0449002	-0.456135	0.0816604	-0.375288	0.540576	0.128451	0.239038	-0.0882507	-1.14692	-0.0679626	0.0508604	0.524815	-0.0631083	-0.313577	0.577142	0.153201	0.263539	-0.0754582
0.0165741	0.0353865	-0.167415	-1.52653	-0.00332821	0.986929	0.0257632	-0.124621	-0.0635257	-0.210312	0.276935	0.117793	0.119359	-0.092341	-0.156568	-0.0181293	-0.0329745	0.285465	0.0943982	0.025687	-0.0772868	0.0283888	-0.530762	-0.008153	-0.0619913	0.178988	-0.0142297	0.056788	-0.147105	-0.0414429	-1.18197	-0.166633	0.0452167	-0.454965	0.083155	-0.37221	0.542571	0.127302	0.238201	-0.0880926	-1.14733	-0.0686535	0.0497668	0.521896	-0.0634315	-0.316487	0.576431	0.152256	0.264337	-0.0751818
0.0248612	0.0417193	-0.168716	-1.53141	-0.00889232	0.986114	0.0290601	-0.131433	-0.0660875	-0.208933	0.275607	0.120277	0.121132	-0.092275	-0.143585	-0.0173301	-0.0334063	0.305479	0.0926919	0.0211637	-0.0770224	0.0240346	-0.534367	-0.00902138	-0.0632625	0.178421	-0.0094256	0.056044	-0.150543	-0.0401052	-1.18091	-0.166762	0.0455351	-0.453737	0.0847001	-0.36906	0.544583	0.126094	0.237347	-0.0879304	-1.14771	-0.0693699	0.0486463	0.51886	-0.0637628	-0.319463	0.575765	0.151237	0.265136	-0.0748971
0.0331482	0.0483829	-0.170337	-1.53624	-0.014454	0.985291	0.0326225	-0.138843	-0.0689875	-0.207659	0.274403	0.122894	0.123042	-0.0922333	-0.129517	-0.0161426	-0.0338871	0.326334	0.0908764	0.016442	-0.0767469	0.0193185	-0.538296	-0.0100819	-0.0645423	0.177826	-0.00429983	0.0551346	-0.154255	-0.0384989	-1.17981	-0.16688	0.0458479	-0.452405	0.0863344	-0.365799	0.546593	0.12478	0.236471	-0.0877563	-1.14806	-0.0701291	0.047483	0.515629	-0.0640955	-0.322535	0.57517	0.1501	0.26594	-0.0745906
0.0414353	0.0555022	-0.17242	-1.54098	-0.0199737	0.984456	0.0366009	-0.147182	-0.0724073	-0.206556	0.273395	0.125696	0.125134	-0.0922269	-0.11391	-0.0143586	-0.034449	0.34821	0.0888975	0.011447	-0.0764517	0.0140692	-0.542658	-0.0114324	-0.0658137	0.177192	0.00125247	0.0539953	-0.158339	-0.0365197	-1.17865	-0.166982	0.0461489	-0.450921	0.0880973	-0.362406	0.548563	0.123322	0.235575	-0.0875604	-1.14836	-0.0709451	0.046273	0.512136	-0.0644188	-0.325715	0.574682	0.148802	0.266744	-0.0742466
0.0497223	0.0631781	-0.175087	-1.54559	-0.0253795	0.983603	0.0411646	-0.156782	-0.0765404	-0.205717	0.272691	0.128739	0.127446	-0.0922656	-0.0963636	-0.0117552	-0.0351496	0.371062	0.0867061	0.00613225	-0.076127	0.00812065	-0.547538	-0.013179	-0.0670465	0.176508	0.00729198	0.0525752	-0.162857	-0.0340886	-1.17741	-0.167059	0.0464373	-0.44925	0.0900218	-0.35888	0.550454	0.121691	0.23466	-0.0873341	-1.14861	-0.0718251	0.0450266	0.508333	-0.0647218	-0.328985	0.57435	0.147309	0.267531	-0.0738487
0.0580094	0.0714709	-0.178415	-1.55003	-0.0305655	0.982718	0.046496	-0.167917	-0.0815719	-0.205258	0.272446	0.132072	0.129997	-0.0923581	-0.0765875	-0.00811134	-0.0360701	0.394527	0.0842654	0.000498949	-0.0757643	0.00133669	-0.552985	-0.0154269	-0.0681969	0.175777	0.0138149	0.0508447	-0.167822	-0.0311643	-1.17609	-0.167098	0.0467138	-0.447369	0.0921332	-0.355246	0.552229	0.119877	0.233728	-0.087072	-1.1488	-0.0727664	0.0437659	0.504203	-0.0650021	-0.332292	0.574239	0.1456	0.26827	-0.0733835
0.0662964	0.0803919	-0.182418	-1.55419	-0.0353931	0.981783	0.0527857	-0.180772	-0.0876622	-0.205315	0.272877	0.135736	0.132778	-0.0925139	-0.0544759	-0.00322399	-0.0372982	0.417855	0.0815539	-0.00538936	-0.0753562	-0.00636338	-0.558995	-0.0182845	-0.0692201	0.175012	0.0207501	0.0488055	-0.173182	-0.0277546	-1.17471	-0.167089	0.0469726	-0.445272	0.0944458	-0.351565	0.553849	0.117895	0.232784	-0.0867728	-1.14891	-0.0737527	0.0425282	0.499765	-0.065267	-0.335538	0.574431	0.143665	0.268912	-0.0728423
0.0745835	0.0898927	-0.187033	-1.55794	-0.0396959	0.980781	0.060228	-0.195394	-0.0949297	-0.206047	0.274276	0.139753	0.135735	-0.0927453	-0.0301702	0.00306937	-0.0389065	0.43985	0.0785662	-0.0113954	-0.0748976	-0.0149864	-0.565484	-0.0218337	-0.0700553	0.174245	0.0279161	0.0464898	-0.178798	-0.0239223	-1.1733	-0.167017	0.0472087	-0.442976	0.0969518	-0.34793	0.555276	0.11579	0.231842	-0.0864398	-1.14892	-0.0747553	0.0413674	0.49508	-0.0655311	-0.338578	0.575024	0.141517	0.269391	-0.0722222
0.0828706	0.0998525	-0.192112	-1.56107	-0.0432912	0.979697	0.0690151	-0.211657	-0.10343	-0.207621	0.277012	0.144116	0.138766	-0.0930681	-0.00409663	0.0108546	-0.0409412	0.458897	0.075317	-0.0173049	-0.0743894	-0.0244457	-0.572272	-0.0261142	-0.0706307	0.173519	0.0350079	0.043966	-0.184449	-0.0197904	-1.17188	-0.166871	0.0474146	-0.440516	0.0996195	-0.344463	0.556482	0.11364	0.230919	-0.0860808	-1.14881	-0.0757349	0.04035	0.490254	-0.0658153	-0.341214	0.576117	0.139191	0.269628	-0.0715277
0.0911576	0.110064	-0.197418	-1.56341	-0.0459955	0.978519	0.0793279	-0.229236	-0.113134	-0.210178	0.281516	0.148773	0.141723	-0.0935042	0.0230422	0.0201049	-0.0434158	0.473165	0.0718514	-0.0228584	-0.0738415	-0.034557	-0.579081	-0.0311111	-0.0708662	0.172892	0.041611	0.0413382	-0.189845	-0.0155388	-1.17051	-0.166641	0.0475741	-0.437942	0.102392	-0.341313	0.55744	0.11155	0.230047	-0.085706	-1.14855	-0.076646	0.0395434	0.485429	-0.0661467	-0.343205	0.577802	0.136746	0.269542	-0.07077
0.0994447	0.120223	-0.202642	-1.56483	-0.047645	0.977236	0.0913252	-0.247586	-0.12392	-0.213779	0.288275	0.153606	0.14441	-0.0940897	0.0503369	0.0306611	-0.0462823	0.481058	0.0682516	-0.0278218	-0.0732746	-0.0450453	-0.585568	-0.0367623	-0.07069	0.172426	0.0472671	0.0387381	-0.194676	-0.0113799	-1.16922	-0.16633	0.0476563	-0.435305	0.105198	-0.338652	0.558115	0.109644	0.229274	-0.0853233	-1.1481	-0.0774411	0.0390103	0.480758	-0.066559	-0.344283	0.580163	0.134265	0.269071	-0.0699662
0.107732	0.12993	-0.207448	-1.56534	-0.0481137	0.975847	0.105131	-0.265938	-0.135572	-0.218349	0.297824	0.158408	0.146579	-0.0948885	0.0768017	0.0422242	-0.0493702	0.481759	0.0646226	-0.0320493	-0.072712	-0.0555483	-0.591368	-0.0429429	-0.070047	0.172184	0.0515278	0.0363058	-0.19867	-0.00751969	-1.16806	-0.16595	0.0476164	-0.432655	0.107955	-0.336669	0.558463	0.10804	0.228659	-0.0849335	-1.14744	-0.0780772	0.0388048	0.476381	-0.0670998	-0.344184	0.583288	0.131853	0.268195	-0.0691354
0.116019	0.138709	-0.211517	-1.56512	-0.0473244	0.974364	0.120827	-0.283315	-0.147776	-0.223646	0.310725	0.162868	0.147934	-0.0959942	0.101474	0.0543745	-0.0523574	0.475574	0.0610793	-0.0355015	-0.0721692	-0.0656321	-0.596139	-0.049494	-0.0689296	0.172239	0.0540422	0.0341766	-0.201638	-0.00413062	-1.16709	-0.165523	0.0473949	-0.43004	0.110583	-0.335557	0.558432	0.106834	0.228277	-0.084528	-1.14651	-0.0785165	0.0389683	0.472404	-0.0678317	-0.342674	0.587266	0.129631	0.266947	-0.068297
0.124306	0.146057	-0.214583	-1.56445	-0.0452508	0.972823	0.138446	-0.298592	-0.160142	-0.229265	0.32751	0.166594	0.148144	-0.0975228	0.123455	0.066607	-0.0548165	0.463833	0.0577626	-0.0382425	-0.0716571	-0.0748365	-0.5996	-0.0561962	-0.067345	0.172652	0.0545331	0.0324578	-0.203481	-0.00133435	-1.16633	-0.165078	0.0469333	-0.427504	0.11299	-0.335506	0.557965	0.106094	0.228206	-0.0840919	-1.1453	-0.0787341	0.0395217	0.468903	-0.0688203	-0.339565	0.592182	0.127728	0.265407	-0.0674702
